<svg aria-hidden="true" style="position:absolute;width:0;height:0" xmlns="http://www.w3.org/2000/svg" overflow="hidden"><defs><symbol id="icon-arrow" viewBox="0 0 32 32"><path d="M15.941 25.012a2.995 2.995 0 01-2.12-.87l-11.943-12A3.032 3.032 0 011 10.012c0-.396.078-.787.228-1.153s.371-.698.65-.977A2.981 2.981 0 013.998 7a2.987 2.987 0 012.12.882l9.823 9.93 9.853-9.54a2.985 2.985 0 012.173-.993c.411-.007.818.072 1.197.231a2.996 2.996 0 011.831 2.944 3.011 3.011 0 01-1.08 2.139l-11.943 11.58a2.98 2.98 0 01-2.03.84z"/></symbol><symbol id="icon-avatar" viewBox="0 0 32 32"><path d="M.379 31.82h31.243V.577H.379V31.82z"/></symbol><symbol id="icon-facebook" viewBox="0 0 32 32"><path fill="var(--color1, #4b629e)" d="M21.333 5.333V9.6H19.2c-.736 0-1.067.864-1.067 1.6v2.667h3.2v4.267h-3.2v8.533h-4.267v-8.533h-3.2v-4.267h3.2V9.6a4.268 4.268 0 014.267-4.267h3.2z"/></symbol><symbol id="icon-google" viewBox="0 0 32 32"><path fill="var(--color2, #fff)" opacity=".01" d="M5.333 5.333h21.333v21.333H5.333V5.333z"/><path fill="var(--color3, #fbbb00)" d="M10.062 18.224l-.743 2.772-2.714.057a10.623 10.623 0 01-1.271-5.055c0-1.769.43-3.437 1.193-4.905h.001l2.416.443 1.058 2.402a6.328 6.328 0 00-.342 2.061c0 .783.142 1.533.402 2.225z"/><path fill="var(--color4, #518ef8)" d="M26.481 14.007c.123.645.186 1.312.186 1.993a10.665 10.665 0 01-3.988 8.318l-.001-.001-3.043-.155-.431-2.689a6.354 6.354 0 002.735-3.246h-5.704v-4.22H26.48z"/><path fill="var(--color5, #28b446)" d="M22.677 24.318l.001.001A10.623 10.623 0 0116 26.667c-4.062 0-7.594-2.27-9.395-5.612l3.457-2.829a6.342 6.342 0 009.142 3.248l3.474 2.844z"/><path fill="var(--color6, #f14336)" d="M22.809 7.789l-3.455 2.829a6.344 6.344 0 00-9.351 3.321l-3.475-2.845a10.663 10.663 0 019.474-5.761c2.588 0 4.961.922 6.808 2.456z"/></symbol><symbol id="icon-pen" viewBox="0 0 32 32"><path fill="var(--color7, #6e41e2)" d="M25.813 6.588a2.915 2.915 0 00-3.375-.531 9.967 9.967 0 00-.434-.478 2.888 2.888 0 00-4.079 0l-5.135 5.135a.94.94 0 000 1.328.95.95 0 001.328 0l5.135-5.135a1.007 1.007 0 011.424 0l.344.345-2.089 2.088a.487.487 0 000 .69l3.442 3.437a.487.487 0 00.688 0l2.753-2.753a2.917 2.917 0 000-4.126zm-7.914 4.472a.487.487 0 00-.688 0l-7.724 7.726a1.47 1.47 0 00-.317 1.592c.073.177.181.338.317.474l2.065 2.065a1.461 1.461 0 002.066 0l7.725-7.725a.487.487 0 000-.688l-3.444-3.444zM7.757 21.29a.468.468 0 01.201.119l3.23 3.231a.468.468 0 01-.172.773L5.96 27.238a.486.486 0 01-.492-.11.468.468 0 01-.11-.49l1.826-5.057a.474.474 0 01.339-.299.46.46 0 01.233.008z"/></symbol><symbol id="icon-search" viewBox="0 0 32 32"><path d="M20.275 22.156l4.12 4.115c.52.528 1.36.528 1.88 0a1.355 1.355 0 000-1.907l-4.107-4.107a9.31 9.31 0 001.849-5.581 9.343 9.343 0 10-9.341 9.343 9.3 9.3 0 005.599-1.863zm-5.6-.807a6.673 6.673 0 11-.003-13.345 6.673 6.673 0 01.005 13.345h-.003z"/></symbol><symbol id="icon-student" viewBox="0 0 32 32"><path fill="var(--color7, #6e41e2)" d="M16.329 5.209l12.442 4.853a.869.869 0 01.562.829.868.868 0 01-.596.807L16.29 16.012a.876.876 0 01-.59 0L5.331 12.416v5.292c0 .347-.141.681-.391.926a1.348 1.348 0 01-1.886 0 1.3 1.3 0 01-.391-.926v-6.397c.008-.089.027-.177.055-.262-.005-.022-.016-.043-.026-.064a.207.207 0 01-.029-.093c-.004-.178.048-.353.149-.501s.245-.263.413-.328L15.672 5.21a.905.905 0 01.656 0zM16 17.971l6.81-2.366a.9.9 0 011.085.423.865.865 0 01.099.401v4.366c0 .181-.057.357-.164.504s-.257.259-.43.319l-5.334 1.851a6.37 6.37 0 01-4.14 0l-5.334-1.851c-.173-.06-.324-.171-.43-.319s-.164-.323-.164-.504v-4.366a.862.862 0 01.375-.713.912.912 0 01.809-.111l6.817 2.366z"/></symbol><symbol id="icon-Union" viewBox="0 0 32 32"><path d="M.893 26.79a3.052 3.052 0 104.316 4.316l10.79-10.79L26.79 31.107a3.052 3.052 0 104.316-4.316L20.315 16l10.79-10.79A3.052 3.052 0 1026.789.894l-10.79 10.79L5.21.895A3.052 3.052 0 10.894 5.211L11.683 16 .893 26.79z"/></symbol><symbol id="icon-video" viewBox="0 0 32 32"><path fill="var(--color7, #6e41e2)" d="M27.79 8.657a1.572 1.572 0 00-1.348-1.293 78.624 78.624 0 00-20.888 0c-.333.043-.644.192-.886.425s-.404.537-.462.868a41.509 41.509 0 000 14.687 1.572 1.572 0 001.348 1.293 78.651 78.651 0 0020.89 0 1.573 1.573 0 001.349-1.293c.872-4.857.871-9.83-.002-14.686zM11.851 19.132v-6.263a1.078 1.078 0 011.59-.896l6.139 3.131a.996.996 0 01.564.895.993.993 0 01-.564.895l-6.139 3.131a1.089 1.089 0 01-1.042-.008c-.159-.089-.293-.217-.388-.372s-.151-.332-.16-.514z"/></symbol><symbol id="icon-vk" viewBox="0 0 32 32"><path fill="var(--color8, #627da1)" d="M27.734 10.32c.173-.56 0-.987-.827-.987h-2.693c-.693 0-1 .36-1.173.76 0 0-1.373 3.347-3.32 5.533-.64.627-.92.827-1.267.827-.173 0-.453-.2-.453-.773v-5.36c0-.68-.16-.987-.733-.987h-4.253c-.427 0-.68.32-.68.627 0 .64 1 .8 1.067 2.627v3.973c0 .88-.16 1.04-.493 1.04-.907 0-3.147-3.373-4.467-7.213-.267-.747-.52-1.053-1.213-1.053H4.522c-.76 0-.92.36-.92.76 0 .72.92 4.267 4.267 8.96 2.227 3.213 5.373 4.947 8.24 4.947 1.72 0 1.933-.387 1.933-1.053v-2.427c0-.76.16-.92.707-.92.4 0 1.08.2 2.68 1.733 1.84 1.84 2.133 2.667 3.173 2.667h2.693c.773 0 1.16-.387.947-1.147-.24-.76-1.12-1.867-2.28-3.173-.627-.733-1.573-1.533-1.867-1.947-.4-.507-.28-.733 0-1.2 0 0 3.293-4.627 3.64-6.213z"/></symbol></defs></svg>